<?xml version="1.0" encoding="UTF-8"?><svg xmlns="http://www.w3.org/2000/svg" viewBox="0 0 438.08 313.08"><defs><style>.cls-1{fill:#fff;}.cls-2{fill:#393a46;}.cls-3{isolation:isolate;}.cls-4{fill:#cbcbcb;mix-blend-mode:multiply;}.cls-5{fill:#fdc300;}</style></defs><g class="cls-3"><g id="Layer_1"><g><path class="cls-5" d="M269.58,145.58c-.3,49.71-27.48,92.96-67.66,116.08-1.73,1-3.49,1.96-5.27,2.88-18.76,9.71-40.09,15.14-62.68,15-2.08-.01-4.14-.07-6.19-.18-2.07-.11-4.12-.26-6.16-.46l-53.44,22.65c-8.04,4.73-18.14-1.28-17.82-10.61l1.37-40.04C20.02,226.05-.26,187.32,0,143.93,.46,69.48,61.18,9.51,135.62,9.96c21.24,.13,41.29,5.17,59.11,14.03,1.8,.89,3.57,1.82,5.32,2.8,1.01,.55,2,1.13,2.99,1.71,40.07,23.57,66.85,67.26,66.55,117.09Z"/><path class="cls-1" d="M53.61,217.17c.94,2.42,3.07,4.17,5.37,5.22,2.28,1.04,5.46,.89,7.72-.1,2.14-.94,4.48-3.09,5.22-5.37,4.84-14.68,10.21-29.18,16-43.51,2.02-5,4.09-9.97,6.21-14.93,16.34,2.84,32.88,3.93,49.47,3.57,3.88,8.24,8.14,16.3,12.77,24.13,10.47,17.72,22.44,34.41,36,49.9,3.66,4.18,9.41,4.92,13.95,1.63,4.2-3.04,5.07-10.04,1.63-13.95-2.95-3.37-5.84-6.79-8.65-10.27-8.85-10.95-16.97-22.47-24.27-34.51-2.87-4.83-5.61-9.73-8.21-14.71-8.23-15.83-15.01-32.42-20.06-49.54-1.4-4.95-2.67-9.93-3.76-14.95-1.6-7.34-2.86-14.76-3.67-22.23-.38-3.5-.66-7.02-.77-10.54,0-2.48-.37-4.99-2.07-6.96-1.12-1.3-2.49-2.33-4.06-3.05-2-.92-4.43-.85-6.48-.25-1.27,.25-2.41,.81-3.41,1.67-.59,.61-1.18,1.21-1.78,1.82-.02,.04-.04,.08-.07,.12-2.35,3.58-4.28,7.49-6.35,11.23-3.97,7.2-7.82,14.47-11.58,21.78-5.39,10.51-10.58,21.12-15.56,31.82-1.65,3.54-3.27,7.1-4.87,10.67-1.18-.28-2.35-.56-3.52-.85-.35-.09-.7-.18-1.04-.27-1.69-.67-3.44-.88-5.25-.61-.82,.24-1.65,.48-2.47,.72-2.42,.94-4.17,3.07-5.22,5.37-1.04,2.28-.89,5.46,.1,7.72,.88,2.01,3.13,4.63,5.37,5.23,1.34,.36,2.69,.71,4.04,1.06-1.48,3.52-2.95,7.04-4.39,10.58-5.97,14.71-11.5,29.6-16.47,44.67-.87,2.65-.9,5.13,.1,7.72Zm48.79-77.45c4.65-10.22,9.49-20.35,14.5-30.38,1.83-3.66,3.69-7.3,5.56-10.94,.36,1.8,.73,3.59,1.13,5.38,2.91,13.1,6.82,26.02,11.59,38.55l.02,.06c-3.03-.04-6.06-.13-9.09-.28-7.94-.4-15.86-1.21-23.72-2.39Z"/><path class="cls-4" d="M269.58,145.58c-.3,49.71-27.48,92.96-67.66,116.08-15.56-12.22-28.66-27.48-38.36-44.76-12.69-22.59-19.31-48.3-19.15-74.35,.13-20.19,4.19-39.77,12.08-58.18,7.62-17.78,18.47-33.74,32.26-47.43,3.61-3.59,7.38-6.98,11.3-10.16,1.01,.55,2,1.13,2.99,1.71,40.07,23.57,66.85,67.26,66.55,117.09Z"/><path class="cls-2" d="M381.62,257.55l.93,42.64c.22,9.93-10.61,16.2-19.11,11.05l-56.57-24.8c-4.34,.37-8.72,.55-13.15,.52-27.65-.17-53.43-8.15-75.25-21.84-40.71-25.55-67.66-70.95-67.34-122.52C151.61,63.36,216.24-.48,295.48,0c26.76,.16,51.76,7.64,73.12,20.53,41.9,25.28,69.79,71.35,69.47,123.83-.28,46.19-22.38,87.15-56.45,113.19Z"/><path class="cls-2" d="M382.52,298.83l.03,1.35c.2,9.23-9.15,15.3-17.3,11.97,6.07-4.01,11.84-8.46,17.27-13.32Z"/><path class="cls-4" d="M438.07,144.36c-.04,7.16-.61,14.19-1.66,21.06-.15-3.04-.38-6.09-.69-9.16C426.55,65.97,351.38-.35,267.82,8.14c-19.6,1.99-37.93,7.92-54.37,17C236.76,9.12,265.04-.18,295.48,0c26.76,.17,51.76,7.64,73.12,20.53,41.9,25.27,69.79,71.35,69.47,123.83Z"/><path class="cls-1" d="M315.09,201.33c7.47,3.71,15.22,6.91,23.12,9.58,2.04,.69,4.79,.2,6.61-.86,1.78-1.04,3.48-3.08,3.94-5.13,1.08-4.75-1.43-9.02-5.99-10.55-3.59-1.21-7.13-2.54-10.63-3.98-4.03-1.73-7.99-3.63-11.86-5.68,5.31-8.22,9.91-16.89,13.73-25.9,4.53-10.68,8.2-21.64,10.68-32.97,1.63-7.43,2.8-14.97,3.55-22.54,7.17-1.85,14.33-3.72,21.47-5.65,5.21-1.41,10.43-2.78,15.61-4.31,.07-.02,.14-.04,.21-.06,2.09-.6,4.03-2.06,5.13-3.94,1.08-1.84,1.53-4.55,.86-6.61-1.42-4.39-5.93-7.31-10.55-5.99-3.12,.89-6.25,1.75-9.38,2.61-8.16,2.24-16.33,4.42-24.52,6.55-11.37,2.95-22.77,5.81-34.2,8.53-7.18,1.71-14.38,3.37-21.59,4.97-1.21-5.92-2.42-11.84-3.63-17.75-.21-1.01-.41-2.03-.62-3.04-.41-2.03-2.2-4.11-3.94-5.13-1.84-1.08-4.55-1.53-6.61-.86-2.08,.67-4.08,1.96-5.13,3.94-1.12,2.12-1.35,4.25-.86,6.61,1.35,6.61,2.7,13.21,4.05,19.82l-.08,.02c-12.34,2.53-24.73,4.85-37.19,6.66-1.01,.15-2.02,.28-3.03,.42-6.83,.9-13.7,1.64-20.58,1.94-1.75,.08-3.5,.12-5.25,.13-2.21,0-4.51,.95-6.07,2.51-1.49,1.49-2.61,3.93-2.51,6.07,.21,4.63,3.77,8.6,8.58,8.58,12.96-.05,25.93-1.9,38.71-3.91,14.93-2.35,29.76-5.31,44.52-8.53,13.02-2.84,25.99-5.9,38.93-9.1-1.59,11.29-4.22,22.42-7.93,33.2-1.13,3.28-2.36,6.52-3.68,9.72-3.76,8.78-8.27,17.22-13.44,25.24-2.95-1.97-5.84-4.03-8.66-6.18-8.95-7.03-17.2-14.95-24.59-23.6-1.72-2.01-3.38-4.06-5-6.14-.22-.29-.44-.58-.66-.87-1.39-1.86-2.8-3.3-5.13-3.94-2.05-.57-4.79-.31-6.61,.86-1.83,1.18-3.44,2.94-3.94,5.13-.48,2.1-.49,4.81,.86,6.61,7.65,10.18,16.11,19.68,25.69,28.09,5.69,5,11.7,9.67,17.97,13.94-6.29,7.62-13.22,14.7-20.73,21.13-1.87,1.6-3.79,3.16-5.73,4.68-4.29,3.27-8.72,6.35-13.29,9.22-1.86,1.17-3.35,2.98-3.94,5.13-.57,2.05-.31,4.79,.86,6.61,1.18,1.83,2.94,3.44,5.13,3.94,2.21,.5,4.64,.37,6.61-.86,8.44-5.29,16.48-11.3,23.98-17.86,7.99-6.99,15.22-14.74,21.81-23.04,1.63,.88,3.28,1.74,4.95,2.57Z"/></g></g></g></svg>